<svg width="220" height="220" viewBox="0 0 220 220" xmlns="http://www.w3.org/2000/svg" role="img" aria-labelledby="title desc">
  <title id="title">Badarinath Ayurveda logo</title>
  <desc id="desc">Circular green emblem with three white herbal leaves and the word Badarinath</desc>
  <circle cx="110" cy="110" r="108" fill="#1fb656" />
  <g fill="#fff" stroke="#1fb656" stroke-width="2" stroke-linejoin="round">
    <path d="M110 44 C130 90 128 142 110 177 C92 142 90 90 110 44Z" />
    <path d="M62 90 C82 120 84 150 70 170 C50 150 48 120 62 90Z" />
    <path d="M158 90 C174 120 172 150 150 170 C132 150 130 120 142 90Z" />
  </g>
  <g stroke="#1fb656" stroke-width="2" stroke-linecap="round">
    <path d="M110 60 L110 165" stroke="#fff" />
    <path d="M69 105 L69 160" stroke="#fff" />
    <path d="M151 105 L151 160" stroke="#fff" />
  </g>
  <g stroke="#fff" stroke-width="6" stroke-linecap="round">
    <line x1="92" y1="184" x2="102" y2="200" />
    <line x1="118" y1="184" x2="108" y2="200" />
    <line x1="73" y1="184" x2="55" y2="200" />
    <line x1="137" y1="184" x2="155" y2="200" />
  </g>
  <text x="110" y="210" text-anchor="middle" font-family="'Playfair Display', 'Times New Roman', serif" font-size="24" fill="#fff" letter-spacing="3">BADARINATH</text>
</svg>
